<svg xmlns="http://www.w3.org/2000/svg" viewBox="55 40 230 190" fill="none">
  <path d="m145.8 34.17c-12.92 8.01-23.38 22.56-23.7 39.77l-0.2 0.35c-31.14 13.14-51.81 42.88-63.73 70.81-7.42 18.06-12.25 35.51-16.05 54.89l75.81 50.02h45.32c0.88-17.39-5.46-32.92-15.57-47.3-6.28-7.99-9.13-18.2-8.07-30-14.84-5-28.73-20.25-28.93-44.61h8.32c-0.93 13.39 7.96 36.43 34.27 38.11 4.79 0 8.67-0.8 10.63-1.8l24.73 12.4c1.37 0.7 1.99 1.47 2.54 2.7 4.93 9.2 9.26 16.37 21.25 13.78l10.38-3.75c6.47-2.28 9.8-6.5 11.72-22.43 0.51-3.2 0.7-4.4-1.18-7.8-5.14-7.8-32.46-40.4-43.57-53.42l-36.35-37.4-7.57-0.15-0.05-34.17zm101.2-28.17-78.48 64.99 16.59 18.04 61.89-83.03zm-76.63 32.25c-8.12 5.68-15.32 13.56-16.69 20.2l0.09 2.26c3.15 0 5.31 2.15 8.11 4.9l8.12-7.16 0.37-20.2zm-52.36 16.93c-27.76 2.65-55.15 15.61-76.01 36.5 8.15-2.1 16.2-2.75 23.22-0.9-18.54 7.85-38.34 22.33-51.88 47.83 8.02-4.35 15.93-6.85 22.33-7.35-12.19 13.45-21.72 27.9-26.27 48.85l24.5 16c11-46.45 33.75-95.3 80.81-126.8 0.76-4.85 1.57-9.71 3.3-14.16zm40.05 45.83 20.76 15.95c-4.05 1.47-9.11 1.9-12.74 0.35-6.32-2.5-8.7-8.22-8.02-16.3z" fill="#1b4d2e"/>
</svg>
